fd_9_states
version=1
nRows=43
nColumns=17
inDegrees=yes

# SIMM Motion File Header:
name fd_9_states
datacolumns 17
datarows 43
otherdata 1
range 0.399118 0.437240
endheader
time	/jointset/r_shoulder/r_shoulder_elev/value	/jointset/r_shoulder/r_shoulder_elev/speed	/jointset/r_elbow/r_elbow_flex/value	/jointset/r_elbow/r_elbow_flex/speed	/forceset/TRIlong/activation	/forceset/TRIlong/fiber_length	/forceset/TRIlat/activation	/forceset/TRIlat/fiber_length	/forceset/TRImed/activation	/forceset/TRImed/fiber_length	/forceset/BIClong/activation	/forceset/BIClong/fiber_length	/forceset/BICshort/activation	/forceset/BICshort/fiber_length	/forceset/BRA/activation	/forceset/BRA/fiber_length
      0.399118	     -0.012543	     -0.981286	    139.734964	    -18.427908	      0.085863	      0.185714	      0.582187	      0.118965	      0.582307	      0.114066	      0.889501	      0.056138	      0.724975	      0.055527	      0.637637	      0.047720
      0.399439	     -0.012854	     -0.957458	    139.729076	    -18.225645	      0.085532	      0.185713	      0.576046	      0.118977	      0.576164	      0.114078	      0.891416	      0.056125	      0.730467	      0.055513	      0.645504	      0.047714
      0.399699	     -0.013100	     -0.939365	    139.724382	    -17.945300	      0.085265	      0.185713	      0.571161	      0.118987	      0.571277	      0.114087	      0.892938	      0.056115	      0.734805	      0.055503	      0.651694	      0.047709
      0.400000	     -0.013380	     -0.919831	    139.719040	    -17.491176	      0.084958	      0.185713	      0.565574	      0.118998	      0.565689	      0.114098	      0.894676	      0.056103	      0.739734	      0.055491	      0.658700	      0.047704
      0.400014	     -0.013393	     -0.918953	    139.718792	    -17.466468	      0.084943	      0.185713	      0.565912	      0.118998	      0.566026	      0.114098	      0.894757	      0.056103	      0.739963	      0.055490	      0.658473	      0.047704
      0.400028	     -0.013406	     -0.918081	    139.718544	    -17.441590	      0.084929	      0.185713	      0.566369	      0.118999	      0.566483	      0.114099	      0.894838	      0.056102	      0.740193	      0.055490	      0.658136	      0.047704
      0.400099	     -0.013471	     -0.913799	    139.717310	    -17.314714	      0.084856	      0.185712	      0.568642	      0.119002	      0.568755	      0.114101	      0.895243	      0.056099	      0.741335	      0.055487	      0.656454	      0.047703
      0.400454	     -0.013792	     -0.894240	    139.711282	    -16.623564	      0.084496	      0.185712	      0.579747	      0.119013	      0.579856	      0.114112	      0.897240	      0.056086	      0.746956	      0.055474	      0.648156	      0.047698
      0.401952	     -0.015083	     -0.834466	    139.688986	    -13.008737	      0.083003	      0.185708	      0.622318	      0.119042	      0.622412	      0.114139	      0.905223	      0.056036	      0.769074	      0.055423	      0.615032	      0.047692
      0.403450	     -0.016301	     -0.794677	    139.672546	     -8.921834	      0.081550	      0.185704	      0.659100	      0.119054	      0.659182	      0.114149	      0.912541	      0.055991	      0.788895	      0.055378	      0.584659	      0.047697
      0.404834	     -0.017381	     -0.766996	    139.662790	     -5.213240	      0.080240	      0.185702	      0.688942	      0.119055	      0.689014	      0.114149	      0.918772	      0.055954	      0.805445	      0.055342	      0.558744	      0.047706
      0.406757	     -0.018821	     -0.728960	    139.657172	     -0.834439	      0.078474	      0.185701	      0.725000	      0.119041	      0.725061	      0.114133	      0.926654	      0.055909	      0.825984	      0.055296	      0.525784	      0.047723
      0.408681	     -0.020175	     -0.675754	    139.658582	      2.001617	      0.076766	      0.185701	      0.755944	      0.119014	      0.755997	      0.114105	      0.933731	      0.055868	      0.844068	      0.055254	      0.495916	      0.047743
      0.409402	     -0.020654	     -0.650468	    139.660251	      2.576656	      0.076140	      0.185702	      0.766441	      0.119002	      0.766491	      0.114093	      0.936199	      0.055853	      0.850296	      0.055239	      0.485419	      0.047751
      0.409702	     -0.020847	     -0.639055	    139.661048	      2.731502	      0.075882	      0.185702	      0.770637	      0.118997	      0.770686	      0.114087	      0.937194	      0.055847	      0.852799	      0.055233	      0.481168	      0.047754
      0.409890	     -0.020967	     -0.631601	    139.661569	      2.803241	      0.075721	      0.185703	      0.773228	      0.118993	      0.773276	      0.114084	      0.937812	      0.055844	      0.854348	      0.055229	      0.478527	      0.047756
      0.409980	     -0.021023	     -0.627989	    139.661821	      2.830319	      0.075645	      0.185703	      0.774444	      0.118992	      0.774492	      0.114082	      0.938102	      0.055842	      0.855076	      0.055228	      0.477282	      0.047756
      0.410010	     -0.021042	     -0.626754	    139.661907	      2.838491	      0.075619	      0.185703	      0.774745	      0.118991	      0.774806	      0.114082	      0.938201	      0.055841	      0.855322	      0.055227	      0.476862	      0.047757
      0.410040	     -0.021061	     -0.625510	    139.661993	      2.846362	      0.075593	      0.185703	      0.774327	      0.118991	      0.774485	      0.114081	      0.938298	      0.055841	      0.855567	      0.055226	      0.476443	      0.047757
      0.410071	     -0.021080	     -0.624255	    139.662079	      2.853996	      0.075567	      0.185703	      0.773875	      0.118990	      0.774135	      0.114081	      0.938396	      0.055840	      0.855812	      0.055226	      0.476023	      0.047757
      0.410222	     -0.021174	     -0.617831	    139.662513	      2.888679	      0.075439	      0.185703	      0.771626	      0.118988	      0.772392	      0.114078	      0.938883	      0.055837	      0.857029	      0.055223	      0.473937	      0.047759
      0.410978	     -0.021628	     -0.582464	    139.664742	      2.982755	      0.074800	      0.185704	      0.760655	      0.118978	      0.763879	      0.114068	      0.941256	      0.055823	      0.862945	      0.055208	      0.463726	      0.047766
      0.414118	     -0.023191	     -0.410897	    139.673569	      2.462286	      0.072237	      0.185710	      0.719561	      0.118967	      0.731829	      0.114053	      0.950122	      0.055770	      0.884755	      0.055152	      0.424928	      0.047796
      0.416288	     -0.023961	     -0.302554	    139.678150	      1.742336	      0.070544	      0.185715	      0.694779	      0.118974	      0.712387	      0.114057	      0.955430	      0.055737	      0.897599	      0.055117	      0.401068	      0.047815
      0.417787	     -0.024369	     -0.244902	    139.680379	      1.238017	      0.069411	      0.185718	      0.679144	      0.118983	      0.700081	      0.114062	      0.958752	      0.055717	      0.905560	      0.055095	      0.385812	      0.047827
      0.419364	     -0.024722	     -0.206194	    139.681955	      0.777394	      0.068250	      0.185722	      0.663866	      0.118996	      0.688029	      0.114071	      0.961971	      0.055697	      0.913221	      0.055074	      0.370738	      0.047840
      0.419887	     -0.024828	     -0.199294	    139.682328	      0.649826	      0.067872	      0.185723	      0.659046	      0.119000	      0.684222	      0.114074	      0.962980	      0.055690	      0.915611	      0.055068	      0.365946	      0.047844
      0.420024	     -0.024855	     -0.198012	    139.682415	      0.618833	      0.067773	      0.185723	      0.657884	      0.119002	      0.683282	      0.114075	      0.963240	      0.055689	      0.916227	      0.055066	      0.364706	      0.047845
      0.420127	     -0.024875	     -0.197092	    139.682477	      0.596336	      0.067699	      0.185723	      0.657691	      0.119002	      0.682946	      0.114076	      0.963434	      0.055687	      0.916683	      0.055065	      0.363783	      0.047846
      0.420229	     -0.024895	     -0.196141	    139.682537	      0.574374	      0.067626	      0.185723	      0.657572	      0.119003	      0.682650	      0.114076	      0.963626	      0.055686	      0.917137	      0.055063	      0.362864	      0.047847
      0.420741	     -0.024994	     -0.190939	    139.682805	      0.472495	      0.067261	      0.185724	      0.656980	      0.119008	      0.681187	      0.114079	      0.964570	      0.055680	      0.919367	      0.055057	      0.358325	      0.047851
      0.423303	     -0.025442	     -0.156353	    139.683538	      0.150738	      0.065481	      0.185729	      0.654190	      0.119028	      0.674313	      0.114095	      0.968931	      0.055653	      0.929601	      0.055029	      0.336912	      0.047871
      0.427453	     -0.025955	     -0.091962	    139.684035	      0.188214	      0.062753	      0.185736	      0.650207	      0.119055	      0.664574	      0.114118	      0.974865	      0.055616	      0.943382	      0.054992	      0.306219	      0.047902
      0.428627	     -0.026054	     -0.077147	    139.684315	      0.295855	      0.062015	      0.185738	      0.649189	      0.119061	      0.662098	      0.114124	      0.976324	      0.055606	      0.946744	      0.054983	      0.298322	      0.047911
      0.429641	     -0.026127	     -0.066943	    139.684674	      0.415095	      0.061388	      0.185739	      0.648345	      0.119066	      0.660049	      0.114130	      0.977515	      0.055599	      0.949483	      0.054976	      0.291746	      0.047918
      0.429893	     -0.026143	     -0.064857	    139.684783	      0.448007	      0.061234	      0.185740	      0.648141	      0.119067	      0.659553	      0.114131	      0.977801	      0.055597	      0.950139	      0.054974	      0.290149	      0.047920
      0.430000	     -0.026150	     -0.064028	    139.684832	      0.462364	      0.061169	      0.185740	      0.648054	      0.119068	      0.659343	      0.114131	      0.977922	      0.055596	      0.950407	      0.054973	      0.289474	      0.047921
      0.430043	     -0.026153	     -0.063703	    139.684851	      0.468105	      0.061143	      0.185740	      0.647910	      0.119068	      0.659229	      0.114132	      0.977969	      0.055596	      0.949616	      0.054973	      0.289208	      0.047921
      0.430099	     -0.026156	     -0.063258	    139.684878	      0.475813	      0.061108	      0.185740	      0.647689	      0.119068	      0.659068	      0.114132	      0.978033	      0.055596	      0.948330	      0.054973	      0.288853	      0.047921
      0.430382	     -0.026174	     -0.060853	    139.685018	      0.515005	      0.060937	      0.185741	      0.646594	      0.119069	      0.658271	      0.114133	      0.978346	      0.055594	      0.941972	      0.054971	      0.287088	      0.047923
      0.431795	     -0.026250	     -0.045462	    139.685886	      0.713577	      0.060091	      0.185743	      0.641305	      0.119076	      0.654416	      0.114140	      0.979846	      0.055584	      0.911868	      0.054971	      0.278508	      0.047933
      0.433591	     -0.026310	     -0.021773	    139.687375	      0.934654	      0.059044	      0.185746	      0.635002	      0.119086	      0.649820	      0.114149	      0.981601	      0.055573	      0.877275	      0.054981	      0.268159	      0.047946
      0.437240	     -0.026307	      0.020567	    139.691253	      1.115707	      0.057009	      0.185752	      0.623501	      0.119106	      0.641423	      0.114167	      0.984705	      0.055553	      0.817452	      0.055024	      0.248861	      0.047970
